<svg viewBox="0 0 18 18" fill="none" xmlns="http://www.w3.org/2000/svg">
<path d="M9 0C7.21997 0 5.47991 0.527841 3.99987 1.51677C2.51983 2.50571 1.36628 3.91131 0.685088 5.55585C0.00389956 7.20038 -0.17433 9.00998 0.172936 10.7558C0.520203 12.5016 1.37737 14.1053 2.63604 15.364C3.89471 16.6226 5.49836 17.4798 7.24419 17.8271C8.99002 18.1743 10.7996 17.9961 12.4442 17.3149C14.0887 16.6337 15.4943 15.4802 16.4832 14.0001C17.4722 12.5201 18 10.78 18 9C17.9975 6.61382 17.0485 4.3261 15.3612 2.63882C13.6739 0.95154 11.3862 0.00251984 9 0ZM6.71798 12.4615H11.282C10.8173 14.0487 10.0385 15.4791 9 16.6059C7.96154 15.4791 7.18269 14.0487 6.71798 12.4615ZM6.40385 11.0769C6.17424 9.70183 6.17424 8.29817 6.40385 6.92308H11.5962C11.8258 8.29817 11.8258 9.70183 11.5962 11.0769H6.40385ZM1.38462 9C1.38402 8.29768 1.481 7.59869 1.67279 6.92308H5.00106C4.79452 8.29999 4.79452 9.70001 5.00106 11.0769H1.67279C1.481 10.4013 1.38402 9.70231 1.38462 9ZM11.282 5.53846H6.71798C7.18269 3.95135 7.96154 2.52086 9 1.39413C10.0385 2.52086 10.8173 3.95135 11.282 5.53846ZM12.9989 6.92308H16.3272C16.7114 8.28103 16.7114 9.71896 16.3272 11.0769H12.9989C13.2055 9.70001 13.2055 8.29999 12.9989 6.92308ZM15.782 5.53846H12.716C12.3627 4.14823 11.7693 2.83036 10.9627 1.64423C11.9932 1.92117 12.9544 2.41072 13.7844 3.0814C14.6144 3.75208 15.2949 4.58904 15.782 5.53846ZM7.03731 1.64423C6.23068 2.83036 5.63735 4.14823 5.28404 5.53846H2.21798C2.70513 4.58904 3.38559 3.75208 4.21559 3.0814C5.04559 2.41072 6.00677 1.92117 7.03731 1.64423ZM2.21798 12.4615H5.28404C5.63735 13.8518 6.23068 15.1696 7.03731 16.3558C6.00677 16.0788 5.04559 15.5893 4.21559 14.9186C3.38559 14.2479 2.70513 13.411 2.21798 12.4615ZM10.9627 16.3558C11.7693 15.1696 12.3627 13.8518 12.716 12.4615H15.782C15.2949 13.411 14.6144 14.2479 13.7844 14.9186C12.9544 15.5893 11.9932 16.0788 10.9627 16.3558Z" fill="#f39519"/>
</svg>
